<svg height="464pt" viewBox="0 0 464 464.008" width="464pt" xmlns="http://www.w3.org/2000/svg"><path d="m309.691406 349.238281c-1.933594-8.0625-5.136718-15.765625-9.496094-22.894531l-2.527343-4.136719 9.121093-15.183593-13.800781-13.800782-15.183593 9.121094-4.136719-2.527344c-7.121094-4.351562-14.824219-7.542968-22.902344-9.503906l-4.714844-1.136719-4.292969-17.167969h-19.503906l-4.296875 17.167969-4.714843 1.136719c-8.085938 1.953125-15.789063 5.152344-22.902344 9.503906l-4.136719 2.527344-15.183594-9.121094-13.800781 13.800782 9.121094 15.183593-2.527344 4.136719c-4.359375 7.136719-7.550781 14.832031-9.496094 22.894531l-1.144531 4.722657-17.167969 4.296874v19.503907l17.167969 4.292969 1.144531 4.722656c1.9375 8.0625 5.136719 15.765625 9.496094 22.894531l2.527344 4.136719-9.121094 15.183594 13.800781 13.800781 15.183594-9.121094 4.136719 2.527344c7.136718 4.359375 14.832031 7.554687 22.894531 9.496093l4.722656 1.144532 4.296875 17.167968h19.503906l4.292969-17.167968 4.722657-1.144532c8.0625-1.933593 15.765624-5.136718 22.894531-9.496093l4.136719-2.527344 15.183593 9.121094 13.800781-13.800781-9.121093-15.183594 2.527343-4.136719c4.359376-7.136719 7.550782-14.832031 9.496094-22.894531l1.144532-4.722656 17.167968-4.300782v-19.507812l-17.167968-4.292969zm-77.6875 82.761719c-35.289062 0-64-28.710938-64-64 0-10.632812 2.664063-21.167969 7.703125-30.457031l14.066407 7.625c-3.777344 6.960937-5.769532 14.855469-5.769532 22.832031 0 26.472656 21.527344 48 48 48 7.976563 0 15.871094-1.992188 22.832032-5.769531l7.625 14.066406c-9.289063 5.039063-19.824219 7.703125-30.457032 7.703125zm0-32c-17.648437 0-32-14.351562-32-32s14.351563-32 32-32c17.648438 0 32 14.351562 32 32s-14.351562 32-32 32zm56.296875-1.542969-14.066406-7.625c3.777344-6.953125 5.769531-14.855469 5.769531-22.832031 0-26.472656-21.527344-48-48-48-7.976562 0-15.871094 1.992188-22.832031 5.769531l-7.625-14.066406c9.289063-5.039063 19.824219-7.703125 30.457031-7.703125 35.289063 0 64 28.710938 64 64 0 10.632812-2.664062 21.167969-7.703125 30.457031zm0 0"/><path d="m.00390625 360h119.99999975v-14.246094l20.023438-5c1.898437-6.417968 4.472656-12.609375 7.679687-18.507812l-10.621093-17.710938 31.453124-31.457031 17.714844 10.625c5.886719-3.199219 12.085938-5.773437 18.503906-7.671875l5-20.03125h44.496094l5 20.03125c6.421875 1.898438 12.613282 4.472656 18.503906 7.671875l17.710938-10.625 31.457031 31.457031-10.625 17.710938c3.207031 5.898437 5.785157 12.097656 7.679688 18.507812l20.023437 5v14.246094h120v-296h-463.99999975zm207.99999975-120h-104v-16h104zm-104-32v-16h256v16zm0-32v-16h104v16zm152 0v-16h104v16zm0 64v-16h104v16zm104-160c26.472656 0 48 21.527344 48 48v41.375c0 12.273438 4.976563 24.289062 13.65625 32.96875l5.65625 5.65625-5.65625 5.65625c-8.679687 8.679688-13.65625 20.695312-13.65625 32.96875v41.375c0 26.472656-21.527344 48-48 48v-16c17.648438 0 32-14.351562 32-32v-41.375c0-13.960938 4.800782-27.671875 13.34375-38.625-8.542968-10.953125-13.34375-24.664062-13.34375-38.625v-41.375c0-17.648438-14.351562-32-32-32zm0 64h-256v-16h256zm-317.65625 58.34375c8.679688-8.679688 13.65625-20.695312 13.65625-32.96875v-41.375c0-26.472656 21.527344-48 48-48v16c-17.648437 0-32 14.351562-32 32v41.375c0 13.960938-4.800781 27.671875-13.34375 38.625 8.542969 10.953125 13.34375 24.664062 13.34375 38.625v41.375c0 17.648438 14.351563 32 32 32v16c-26.472656 0-48-21.527344-48-48v-41.375c0-12.273438-4.976562-24.289062-13.65625-32.96875l-5.65625-5.65625zm0 0"/><path d="m248.003906 368c0 8.835938-7.164062 16-16 16-8.835937 0-16-7.164062-16-16s7.164063-16 16-16c8.835938 0 16 7.164062 16 16zm0 0"/><path d="m456.003906 0h-448c-4.414062 0-7.99999975 3.585938-7.99999975 8v40h463.99999975v-40c0-4.40625-3.582031-8-8-8zm-424 32h-16v-16h16zm32 0h-16v-16h16zm32 0h-16v-16h16zm0 0"/></svg>